<?xml version="1.0" encoding="UTF-8"?>
<svg xmlns="http://www.w3.org/2000/svg" viewBox="0 0 83.62 83.62" fill="#fff">
    <path d="m35.15,51.21c.62-.66,1.09-1.19,1.59-1.69,7.49-7.5,14.98-14.99,22.47-22.48.27-.27.54-.56.84-.79,1.1-.87,2.64-.81,3.66.13,1.03.95,1.21,2.58.39,3.72-.2.29-.46.54-.71.79-8.6,8.6-17.2,17.21-25.8,25.81-1.71,1.71-3.17,1.71-4.88,0-4.19-4.18-8.38-8.36-12.54-12.57-.48-.48-.9-1.13-1.07-1.77-.34-1.23.28-2.43,1.33-3.02,1.15-.64,2.47-.46,3.49.55,2.96,2.94,5.91,5.89,8.86,8.85.77.77,1.51,1.58,2.38,2.48Z"/>
    <path d="m41.81,83.62C18.76,83.62,0,64.86,0,41.81S18.76,0,41.81,0s41.81,18.76,41.81,41.81-18.76,41.81-41.81,41.81Zm0-78.52C21.57,5.1,5.1,21.57,5.1,41.81s16.47,36.71,36.71,36.71,36.71-16.47,36.71-36.71S62.05,5.1,41.81,5.1Z"/>
</svg>